<svg width="53" height="37" viewBox="0 0 53 37" fill="none" xmlns="http://www.w3.org/2000/svg">
<g id="Group 677">
<rect id="Rectangle" x="0.5" y="0.5" width="52" height="36" rx="3.5" fill="white" stroke="#F3F3F3"/>
<g id="Bitcoin">
<path id="path8316" fill-rule="evenodd" clip-rule="evenodd" d="M17.97 14.9616C18.3411 14.9616 18.6612 15.0284 18.9305 15.16C19.2009 15.2927 19.4244 15.4715 19.6034 15.6963C19.78 15.9223 19.9115 16.1866 19.9964 16.4891C20.0808 16.7928 20.1231 17.119 20.1231 17.4685C20.1231 18.0048 20.0256 18.5121 19.8283 18.99C19.6314 19.4684 19.3638 19.8836 19.0237 20.2376C18.6838 20.5915 18.2825 20.8701 17.8197 21.076C17.3574 21.2824 16.8552 21.3851 16.3158 21.3851C16.246 21.3851 16.1234 21.3834 15.9502 21.3794C15.777 21.3759 15.5777 21.3581 15.3547 21.3276C15.1304 21.2962 14.8931 21.2496 14.6424 21.1871C14.392 21.1258 14.1542 21.0397 13.9301 20.9306L15.9327 12.4559L17.7265 12.1758L17.0095 15.183C17.1631 15.1133 17.3177 15.0592 17.4721 15.0201C17.6273 14.9821 17.7928 14.9616 17.97 14.9616ZM16.4656 19.9523C16.7357 19.9523 16.9901 19.8855 17.2294 19.754C17.4692 19.6227 17.6762 19.4451 17.8494 19.2237C18.0226 19.0017 18.1601 18.7513 18.2602 18.4715C18.3602 18.1919 18.4108 17.9003 18.4108 17.5966C18.4108 17.2238 18.3491 16.9327 18.2256 16.7226C18.1021 16.513 17.874 16.4079 17.5424 16.4079C17.4338 16.4079 17.2937 16.4286 17.1202 16.4658C16.9461 16.5058 16.7903 16.5878 16.6505 16.7113L15.887 19.9054C15.933 19.9132 15.9739 19.9212 16.0085 19.9284C16.0425 19.9362 16.08 19.942 16.1174 19.946C16.1571 19.9506 16.2023 19.9526 16.2569 19.9526C16.3115 19.9526 16.3807 19.9523 16.4656 19.9523Z" fill="#4D4D4D"/>
<path id="path8318" fill-rule="evenodd" clip-rule="evenodd" d="M21.984 21.2226H20.2706L21.7176 15.091H23.4427L21.984 21.2226ZM22.8176 14.3444C22.5783 14.3444 22.3616 14.2724 22.1693 14.1291C21.9752 13.9863 21.8791 13.7664 21.8791 13.4701C21.8791 13.3072 21.912 13.154 21.9772 13.0101C22.0432 12.8661 22.1298 12.7418 22.2382 12.6367C22.3465 12.5322 22.4717 12.4487 22.6141 12.3857C22.7573 12.3238 22.9096 12.293 23.072 12.293C23.311 12.293 23.5268 12.3647 23.7197 12.5083C23.9121 12.6525 24.009 12.8725 24.009 13.167C24.009 13.3305 23.9764 13.4842 23.9104 13.6282C23.8449 13.7721 23.7586 13.8959 23.6503 14.0016C23.5431 14.1061 23.4164 14.1893 23.2744 14.2517C23.1312 14.3145 22.9797 14.3444 22.8176 14.3444Z" fill="#4D4D4D"/>
<path id="path8320" fill-rule="evenodd" clip-rule="evenodd" d="M24.9437 13.564L26.7383 13.2839L26.2975 15.091H28.2193L27.8722 16.5128H25.9619L25.4531 18.6578C25.4062 18.8366 25.3796 19.0036 25.3722 19.1585C25.3639 19.3145 25.3833 19.4484 25.4296 19.5609C25.4757 19.6738 25.5585 19.7607 25.6786 19.8226C25.7981 19.8851 25.9693 19.9165 26.1934 19.9165C26.3781 19.9165 26.5582 19.8989 26.7323 19.8635C26.9052 19.8292 27.0807 19.7809 27.2582 19.7178L27.386 21.0476C27.1545 21.1331 26.9038 21.2068 26.6336 21.2687C26.3632 21.3311 26.0428 21.3613 25.6726 21.3613C25.1403 21.3613 24.7276 21.2822 24.4337 21.1236C24.1401 20.9638 23.9326 20.7459 23.8083 20.4698C23.6856 20.1948 23.631 19.8776 23.6465 19.5203C23.6625 19.1622 23.7159 18.7857 23.8083 18.3892L24.9437 13.564Z" fill="#4D4D4D"/>
<path id="path8322" fill-rule="evenodd" clip-rule="evenodd" d="M28.1438 18.7749C28.1438 18.2466 28.2287 17.7489 28.3985 17.2822C28.5677 16.8156 28.8118 16.4076 29.1286 16.0573C29.4441 15.7086 29.8283 15.4326 30.2806 15.2302C30.7308 15.0284 31.2347 14.9268 31.7904 14.9268C32.138 14.9268 32.4488 14.9596 32.722 15.0261C32.9964 15.0929 33.2449 15.1795 33.4692 15.2881L32.8784 16.6414C32.724 16.5783 32.5637 16.5228 32.3982 16.4721C32.2324 16.4209 32.03 16.3961 31.7907 16.3961C31.219 16.3961 30.7668 16.5945 30.4303 16.99C30.0953 17.3861 29.9264 17.919 29.9264 18.5878C29.9264 18.9842 30.0113 19.3043 30.1816 19.5496C30.3512 19.7946 30.6642 19.9163 31.119 19.9163C31.3434 19.9163 31.5597 19.8927 31.7673 19.8467C31.9762 19.8 32.1606 19.7416 32.3233 19.6719L32.451 21.0589C32.2344 21.1439 31.9954 21.2204 31.7333 21.2872C31.4706 21.352 31.1578 21.3851 30.7951 21.3851C30.3166 21.3851 29.9112 21.3149 29.5799 21.1758C29.2483 21.0348 28.9742 20.8474 28.7584 20.6101C28.5414 20.3723 28.3856 20.0945 28.2893 19.7759C28.1927 19.4583 28.1438 19.1238 28.1438 18.7749H28.1438Z" fill="#4D4D4D"/>
<path id="path8324" fill-rule="evenodd" clip-rule="evenodd" d="M35.7544 21.3856C35.3453 21.3856 34.9903 21.3231 34.689 21.199C34.3886 21.0746 34.1399 20.9005 33.9429 20.6745C33.746 20.4497 33.5982 20.1831 33.4973 19.8762C33.3961 19.5696 33.3478 19.2296 33.3478 18.8574C33.3478 18.3901 33.4224 17.9232 33.5727 17.4574C33.7225 16.991 33.9446 16.5719 34.2391 16.1991C34.5309 15.8257 34.8908 15.5205 35.315 15.2824C35.7384 15.0464 36.2257 14.9275 36.7729 14.9275C37.1742 14.9275 37.5278 14.9902 37.8331 15.1143C38.137 15.2387 38.3874 15.414 38.5855 15.6388C38.7813 15.8648 38.9302 16.1303 39.0303 16.4377C39.1312 16.7437 39.1806 17.0846 39.1806 17.4571C39.1806 17.9229 39.1071 18.3899 38.9614 18.8571C38.8153 19.3217 38.5989 19.742 38.313 20.1154C38.0278 20.4882 37.671 20.7931 37.2425 21.0303C36.814 21.267 36.3175 21.3856 35.7544 21.3856ZM36.6105 16.3966C36.3564 16.3966 36.132 16.4709 35.9396 16.6177C35.7467 16.766 35.5846 16.9525 35.4539 17.1773C35.3219 17.403 35.2238 17.65 35.1578 17.9175C35.0923 18.1861 35.06 18.4397 35.06 18.681C35.06 19.0699 35.1224 19.3727 35.2447 19.5909C35.369 19.8077 35.592 19.9168 35.9165 19.9168C36.1714 19.9168 36.3947 19.8431 36.5882 19.6949C36.78 19.5478 36.9421 19.3612 37.0739 19.1358C37.2051 18.9113 37.304 18.6637 37.37 18.3957C37.4349 18.1279 37.4678 17.8729 37.4678 17.6322C37.4678 17.2441 37.4058 16.9407 37.2823 16.7228C37.1588 16.5054 36.9347 16.3966 36.6105 16.3966Z" fill="#4D4D4D"/>
<path id="path8326" fill-rule="evenodd" clip-rule="evenodd" d="M41.0472 21.2226H39.3326L40.7796 15.091H42.5056L41.0472 21.2226ZM41.8796 14.3444C41.6406 14.3444 41.4239 14.2724 41.2318 14.1291C41.0386 13.9863 40.9417 13.7664 40.9417 13.4701C40.9417 13.3072 40.9749 13.154 41.0403 13.0101C41.1058 12.8661 41.1927 12.7418 41.301 12.6367C41.4088 12.5322 41.5351 12.4487 41.6772 12.3857C41.8196 12.3238 41.9719 12.293 42.134 12.293C42.3735 12.293 42.5899 12.3647 42.7826 12.5083C42.9756 12.6525 43.0727 12.8725 43.0727 13.167C43.0727 13.3305 43.0382 13.4842 42.9733 13.6282C42.9084 13.7721 42.8218 13.8959 42.7137 14.0016C42.6051 14.1061 42.4805 14.1893 42.3381 14.2517C42.1946 14.3145 42.0425 14.3444 41.8796 14.3444Z" fill="#4D4D4D"/>
<path id="path8328" fill-rule="evenodd" clip-rule="evenodd" d="M43.7393 15.3702C43.8694 15.3319 44.0146 15.2859 44.1727 15.2358C44.3313 15.1857 44.5083 15.139 44.7061 15.097C44.9019 15.0538 45.1226 15.019 45.3656 14.9914C45.6085 14.9637 45.885 14.9502 46.1928 14.9502C47.0961 14.9502 47.7193 15.215 48.0632 15.7436C48.4065 16.2722 48.4662 16.9953 48.243 17.9116L47.4552 21.2223H45.7306L46.4944 17.9813C46.5407 17.7789 46.5776 17.5832 46.6045 17.392C46.6319 17.2029 46.6302 17.0359 46.5985 16.8914C46.5684 16.7486 46.4964 16.632 46.3852 16.5413C46.272 16.4518 46.1011 16.4075 45.8692 16.4075C45.646 16.4075 45.4187 16.4316 45.1866 16.4783L44.0635 21.2223H42.3384L43.7393 15.3702Z" fill="#4D4D4D"/>
</g>
<g id="Accepted Here">
<path id="path8332" fill-rule="evenodd" clip-rule="evenodd" d="M23.0389 24.8768L22.7027 25.4917H22.3391C22.5952 25.0265 22.8451 24.5981 23.0886 24.2066C23.3322 23.8151 23.5729 23.4454 23.8107 23.0977H24.1366C24.1709 23.2704 24.2023 23.4451 24.2309 23.621C24.2595 23.7972 24.2875 23.982 24.3149 24.1755C24.3424 24.3689 24.3687 24.5742 24.3938 24.7907C24.419 25.0072 24.4453 25.2407 24.4727 25.492H24.1366C24.1251 25.3883 24.1148 25.2841 24.1057 25.1793C24.0965 25.0745 24.0862 24.9738 24.0748 24.8771H23.0389V24.8768ZM24.0439 24.607C24.0256 24.4208 24.0045 24.2351 23.9805 24.0509C23.9565 23.8666 23.9285 23.6766 23.8964 23.4808C23.8164 23.5983 23.7169 23.75 23.598 23.9351C23.4791 24.1208 23.3442 24.3445 23.1932 24.607H24.0439Z" fill="#4D4D4D"/>
<path id="path8334" fill-rule="evenodd" clip-rule="evenodd" d="M25.6884 25.5431C25.5398 25.5431 25.4088 25.5212 25.2956 25.4775C25.1824 25.4337 25.0881 25.3715 25.0127 25.2909C24.9372 25.2106 24.8806 25.113 24.8429 24.999C24.8051 24.885 24.7863 24.7566 24.7863 24.6138C24.7863 24.4066 24.8188 24.2085 24.884 24.0196C24.9492 23.8311 25.0418 23.6641 25.1619 23.519C25.2819 23.3739 25.4266 23.2582 25.5958 23.1715C25.765 23.0852 25.9534 23.042 26.1618 23.042C26.3402 23.042 26.4825 23.0604 26.5888 23.0973C26.6952 23.1341 26.7712 23.1687 26.817 23.2009L26.6797 23.4773C26.6269 23.4427 26.5557 23.4099 26.4654 23.3788C26.375 23.348 26.2681 23.3322 26.1446 23.3322C25.9868 23.3322 25.8451 23.3696 25.7193 23.4447C25.5935 23.5196 25.4872 23.6163 25.4003 23.7349C25.3134 23.8535 25.2471 23.9871 25.2013 24.1357C25.1556 24.2842 25.1327 24.431 25.1327 24.5761C25.1327 25.0252 25.3259 25.2498 25.7124 25.2498C25.7947 25.2498 25.8685 25.2437 25.9337 25.2322C25.9988 25.221 26.0566 25.2074 26.1069 25.1925C26.1572 25.1775 26.2018 25.1611 26.2407 25.1424C26.2796 25.124 26.3139 25.1078 26.3436 25.094L26.3847 25.3842C26.3573 25.4003 26.3213 25.4176 26.2767 25.436C26.2321 25.4544 26.1801 25.4717 26.1206 25.4881C26.0612 25.5043 25.9948 25.5175 25.9217 25.5279C25.8485 25.5382 25.7707 25.5431 25.6884 25.5431Z" fill="#4D4D4D"/>
<path id="path8336" fill-rule="evenodd" clip-rule="evenodd" d="M27.6157 25.5431C27.467 25.5431 27.3361 25.5212 27.2229 25.4775C27.1097 25.4337 27.0154 25.3715 26.9399 25.2909C26.8644 25.2106 26.8078 25.113 26.7701 24.999C26.7324 24.885 26.7135 24.7566 26.7135 24.6138C26.7135 24.4066 26.7461 24.2085 26.8113 24.0196C26.8764 23.8311 26.9691 23.6641 27.0891 23.519C27.2092 23.3739 27.3538 23.2582 27.523 23.1715C27.6923 23.0852 27.8806 23.042 28.089 23.042C28.2674 23.042 28.4098 23.0604 28.5161 23.0973C28.6224 23.1341 28.6985 23.1687 28.7442 23.2009L28.607 23.4773C28.5541 23.4427 28.4829 23.4099 28.3926 23.3788C28.3023 23.348 28.1954 23.3322 28.0719 23.3322C27.9141 23.3322 27.7723 23.3696 27.6465 23.4447C27.5208 23.5196 27.4144 23.6163 27.3275 23.7349C27.2406 23.8535 27.1743 23.9871 27.1286 24.1357C27.0828 24.2842 27.06 24.431 27.06 24.5761C27.06 25.0252 27.2532 25.2498 27.6397 25.2498C27.722 25.2498 27.7957 25.2437 27.8609 25.2322C27.9261 25.221 27.9838 25.2074 28.0341 25.1925C28.0845 25.1775 28.129 25.1611 28.1679 25.1424C28.2068 25.124 28.2411 25.1078 28.2708 25.094L28.312 25.3842C28.2845 25.4003 28.2485 25.4176 28.2039 25.436C28.1593 25.4544 28.1073 25.4717 28.0479 25.4881C27.9884 25.5043 27.9221 25.5175 27.8489 25.5279C27.7757 25.5382 27.698 25.5431 27.6157 25.5431Z" fill="#4D4D4D"/>
<path id="path8338" fill-rule="evenodd" clip-rule="evenodd" d="M28.5367 25.4914L29.1062 23.0974H30.5091L30.444 23.3772H29.3703L29.1988 24.0992H30.1524L30.0872 24.3722H29.137L28.9347 25.2116H30.0872L30.022 25.4914H28.5367H28.5367Z" fill="#4D4D4D"/>
<path id="path8340" fill-rule="evenodd" clip-rule="evenodd" d="M31.5021 23.073C31.7788 23.073 31.9875 23.126 32.1281 23.2319C32.2688 23.3379 32.3391 23.4922 32.3391 23.6948C32.3391 23.8514 32.3099 23.987 32.2516 24.1007C32.1933 24.2147 32.1104 24.3086 32.0029 24.3826C31.8955 24.4563 31.7662 24.5107 31.6153 24.5464C31.4644 24.5821 31.2963 24.6002 31.1111 24.6002H30.8744L30.6617 25.4915H30.329L30.8915 23.1286C30.9876 23.1055 31.0893 23.0906 31.1968 23.0836C31.3043 23.0765 31.4061 23.073 31.5021 23.073ZM31.461 23.3563C31.2986 23.3563 31.2003 23.361 31.166 23.3702L30.9396 24.3202H31.1557C31.2517 24.3202 31.3501 24.3118 31.4507 24.2943C31.5513 24.277 31.6416 24.2465 31.7217 24.203C31.8017 24.1593 31.8675 24.0988 31.9189 24.0214C31.9704 23.9442 31.9961 23.8449 31.9961 23.7228C31.9961 23.5916 31.9481 23.4977 31.852 23.441C31.756 23.3846 31.6256 23.3563 31.461 23.3563Z" fill="#4D4D4D"/>
<path id="path8342" fill-rule="evenodd" clip-rule="evenodd" d="M34.3684 23.0974L34.3032 23.3772H33.5863L33.082 25.4914H32.7493L33.2535 23.3772H32.5366L32.6018 23.0974H34.3684Z" fill="#4D4D4D"/>
<path id="path8344" fill-rule="evenodd" clip-rule="evenodd" d="M34.0597 25.4914L34.6291 23.0974H36.0321L35.9669 23.3772H34.8932L34.7217 24.0992H35.6753L35.6102 24.3722H34.66L34.4576 25.2116H35.6102L35.545 25.4914H34.0597H34.0597Z" fill="#4D4D4D"/>
<path id="path8346" fill-rule="evenodd" clip-rule="evenodd" d="M37.0199 23.073C37.3721 23.073 37.6351 23.1565 37.8089 23.3235C37.9827 23.4904 38.0696 23.7156 38.0696 23.9988C38.0696 24.1969 38.0387 24.3875 37.9769 24.5703C37.9152 24.7537 37.8192 24.9152 37.6888 25.0559C37.5585 25.1961 37.3921 25.3081 37.1897 25.391C36.9873 25.4739 36.7455 25.5154 36.4642 25.5154C36.3682 25.5154 36.2641 25.5108 36.1521 25.5016C36.04 25.4924 35.9417 25.4762 35.8571 25.4532L36.4093 23.1283C36.5054 23.1052 36.6071 23.0903 36.7146 23.0834C36.8221 23.0765 36.9239 23.073 37.0199 23.073ZM36.9925 23.3563C36.821 23.3563 36.7181 23.361 36.6838 23.3702L36.2447 25.2149C36.263 25.2195 36.2939 25.2236 36.3373 25.227C36.3808 25.2305 36.4516 25.2322 36.55 25.2322C36.7306 25.2322 36.8936 25.202 37.0388 25.1409C37.184 25.0799 37.3069 24.9947 37.4075 24.885C37.5082 24.7756 37.5859 24.6458 37.6408 24.4949C37.6957 24.3441 37.7231 24.1788 37.7231 23.9992C37.7231 23.7965 37.6648 23.6388 37.5482 23.5256C37.4315 23.4131 37.2463 23.3563 36.9925 23.3563Z" fill="#4D4D4D"/>
<path id="path8348" fill-rule="evenodd" clip-rule="evenodd" d="M40.6321 25.4914H40.2993L40.5634 24.3791H39.4623L39.1982 25.4914H38.8655L39.4349 23.0974H39.7676L39.5275 24.0992H40.6289L40.869 23.0974H41.2018L40.6321 25.4914Z" fill="#4D4D4D"/>
<path id="path8350" fill-rule="evenodd" clip-rule="evenodd" d="M41.1569 25.4914L41.7263 23.0974H43.1293L43.0638 23.3772H41.9901L41.8186 24.0992H42.7722L42.7068 24.3722H41.7566L41.5545 25.2116H42.7068L42.6413 25.4914H41.1569H41.1569Z" fill="#4D4D4D"/>
<path id="path8352" fill-rule="evenodd" clip-rule="evenodd" d="M44.1222 23.073C44.3761 23.073 44.5773 23.1248 44.726 23.2285C44.8746 23.3321 44.9486 23.4841 44.9486 23.6842C44.9486 23.8868 44.89 24.057 44.7723 24.194C44.6545 24.331 44.4893 24.4295 44.2766 24.4891C44.304 24.5377 44.3361 24.5994 44.3727 24.6742C44.4092 24.749 44.447 24.832 44.4858 24.9229C44.5244 25.0136 44.5625 25.1083 44.599 25.2059C44.6356 25.3041 44.6674 25.3988 44.6951 25.4909H44.3555C44.3238 25.4034 44.2903 25.3147 44.256 25.2249C44.222 25.1351 44.1868 25.0487 44.1517 24.9658C44.116 24.8829 44.0808 24.8052 44.0451 24.7326C44.0099 24.6601 43.977 24.5959 43.9473 24.5409C43.9176 24.5432 43.8878 24.5449 43.8581 24.5461C43.8284 24.5472 43.7989 24.5478 43.7689 24.5478H43.5048L43.2818 25.4909H42.9491L43.5119 23.128C43.608 23.105 43.7095 23.09 43.8172 23.0831C43.9244 23.0765 44.0262 23.073 44.1222 23.073ZM44.0811 23.3563C43.9187 23.3563 43.8204 23.361 43.7858 23.3702L43.5697 24.2756H43.7723C43.8661 24.2756 43.9621 24.2687 44.0605 24.2548C44.1588 24.241 44.2486 24.214 44.3295 24.1736C44.4106 24.1333 44.477 24.0769 44.5284 24.0044C44.5799 23.9318 44.6059 23.8357 44.6059 23.7159C44.6059 23.5869 44.5573 23.4948 44.4601 23.4395C44.3629 23.384 44.2363 23.3563 44.0811 23.3563Z" fill="#4D4D4D"/>
<path id="path8354" fill-rule="evenodd" clip-rule="evenodd" d="M44.9741 25.4914L45.5435 23.0974H46.9465L46.881 23.3772H45.8074L45.6359 24.0992H46.5895L46.524 24.3722H45.5738L45.3717 25.2116H46.524L46.4586 25.4914H44.9741H44.9741Z" fill="#4D4D4D"/>
</g>
<path id="circle8306" fill-rule="evenodd" clip-rule="evenodd" d="M9.14091 21.3851C11.6659 21.3851 13.7128 19.3236 13.7128 16.7807C13.7128 14.2377 11.6659 12.1763 9.14091 12.1763C6.6159 12.1763 4.56897 14.2377 4.56897 16.7807C4.56897 19.3236 6.6159 21.3851 9.14091 21.3851ZM11.1567 16.1243C11.2477 15.5114 10.7843 15.1821 10.1508 14.9621L10.3564 14.1316L9.85469 14.0055L9.65459 14.8142C9.52281 14.781 9.38732 14.7497 9.2524 14.7189L9.45392 13.905L8.95254 13.7789L8.74672 14.6092C8.63753 14.5841 8.53033 14.5594 8.42628 14.5332L8.42685 14.5306L7.7348 14.3567L7.60131 14.8965C7.60131 14.8965 7.97349 14.9823 7.96577 14.9877C8.16901 15.039 8.20589 15.1743 8.1996 15.2817L7.96548 16.2274C7.97949 16.2308 7.9975 16.2357 8.0178 16.2444C8.00093 16.2397 7.98321 16.2354 7.96463 16.2308L7.63647 17.5562C7.6116 17.6181 7.54843 17.7114 7.40636 17.676C7.4115 17.6832 7.04161 17.5844 7.04161 17.5844L6.79234 18.1631L7.44523 18.3269C7.56672 18.3574 7.68592 18.3897 7.80283 18.4199L7.5953 19.2596L8.09641 19.3857L8.30222 18.5549C8.43914 18.592 8.57207 18.6269 8.70213 18.6594L8.49717 19.4862L8.99884 19.6123L9.20666 18.7743C10.0625 18.9372 10.706 18.8716 10.9767 18.092C11.1951 17.4641 10.9658 17.1022 10.5156 16.8662C10.8437 16.7902 11.0907 16.5731 11.1567 16.1243ZM10.0102 17.7436C9.85497 18.3712 8.80589 18.0318 8.46572 17.9465L8.74129 16.8342C9.08145 16.9197 10.1723 17.0889 10.0102 17.7436ZM10.1654 16.1154C10.0239 16.686 9.15062 16.3961 8.86734 16.3253L9.11718 15.316C9.40046 15.3874 10.3126 15.5201 10.1654 16.1154Z" fill="#F7931A"/>
</g>
</svg>
