<svg width="53" height="37" viewBox="0 0 53 37" fill="none" xmlns="http://www.w3.org/2000/svg">
<g id="Group 676">
<rect id="Rectangle" x="0.5" y="0.5" width="52" height="36" rx="3.5" fill="white" stroke="#F3F3F3"/>
<path id="Combined Shape" fill-rule="evenodd" clip-rule="evenodd" d="M28.0127 13.2282L25.4642 13.7943V11.6557L28.0127 11.1001V13.2282ZM33.3127 14.4129C32.3177 14.4129 31.678 14.8951 31.3226 15.2306L31.1907 14.5806H28.9569V26.8042L31.4953 26.2485L31.5054 23.2818C31.8709 23.5543 32.409 23.9422 33.3025 23.9422C35.12 23.9422 36.7749 22.4326 36.7749 19.1094C36.7648 16.0692 35.0895 14.4129 33.3127 14.4129ZM32.7034 21.6358C32.1043 21.6358 31.749 21.4156 31.5053 21.1431L31.4951 17.2537C31.7591 16.9497 32.1246 16.7401 32.7034 16.7401C33.6273 16.7401 34.267 17.8094 34.267 19.1827C34.267 20.5874 33.6375 21.6358 32.7034 21.6358ZM44.7757 19.2142C44.7757 16.5305 43.5167 14.4129 41.1104 14.4129C38.6939 14.4129 37.2319 16.5305 37.2319 19.1933C37.2319 22.3487 38.9579 23.9422 41.4353 23.9422C42.6436 23.9422 43.5574 23.6592 44.2478 23.2608V21.1641C43.5574 21.5206 42.7654 21.7407 41.7602 21.7407C40.7754 21.7407 39.9022 21.3843 39.7905 20.1472H44.7554C44.7554 20.0895 44.7591 19.9585 44.7633 19.8075L44.7633 19.807C44.769 19.6015 44.7757 19.3592 44.7757 19.2142ZM39.76 18.2183C39.76 17.0337 40.4606 16.541 41.1003 16.541C41.7196 16.541 42.3796 17.0337 42.3796 18.2183H39.76ZM25.4642 14.5911H28.0127V23.764H25.4642V14.5911ZM22.5706 14.5911L22.7331 15.3669C23.3321 14.2347 24.5201 14.4653 24.845 14.5911V17.0023C24.5302 16.887 23.5149 16.7402 22.9158 17.5474V23.764H20.3775V14.5911H22.5706ZM17.6564 12.3162L15.179 12.8613L15.1688 21.2585C15.1688 22.81 16.2959 23.9527 17.7985 23.9527C18.6311 23.9527 19.2403 23.7954 19.5754 23.6067V21.4786C19.2505 21.6149 17.6462 22.0971 17.6462 20.5456V16.824H19.5754V14.5911H17.6462L17.6564 12.3162ZM11.6559 16.6877C11.1178 16.6877 10.7929 16.845 10.7929 17.2538C10.7929 17.7002 11.3521 17.8966 12.0458 18.1402C13.1767 18.5374 14.6651 19.0601 14.6714 20.9964C14.6714 22.8729 13.2195 23.9527 11.1076 23.9527C10.2345 23.9527 9.28006 23.7745 8.33581 23.3551V20.8601C9.18868 21.3423 10.2649 21.6988 11.1076 21.6988C11.6762 21.6988 12.0824 21.5415 12.0824 21.0593C12.0824 20.5648 11.4762 20.3388 10.7444 20.0659C9.62997 19.6504 8.22412 19.1262 8.22412 17.3796C8.22412 15.5241 9.59481 14.4129 11.6559 14.4129C12.4986 14.4129 13.3312 14.5491 14.1739 14.8951V17.3587C13.4023 16.9289 12.4276 16.6877 11.6559 16.6877Z" fill="#6772E5"/>
</g>
</svg>
