<svg width="53" height="37" viewBox="0 0 53 37" fill="none" xmlns="http://www.w3.org/2000/svg">
<g id="Group 673">
<rect id="Rectangle" x="0.5" y="0.5" width="52" height="36" rx="3.5" fill="#006FCF" stroke="#F3F3F3"/>
<path id="Amex" fill-rule="evenodd" clip-rule="evenodd" d="M10.8406 26.7267V19.1098H19.3605L20.2746 20.2377L21.2189 19.1098H52.144V26.2014C52.144 26.2014 51.3353 26.7191 50.3999 26.7267H33.276L32.2454 25.526V26.7267H28.8682V24.6771C28.8682 24.6771 28.4069 24.9632 27.4095 24.9632H26.26V26.7267H21.1466L20.2338 25.5745L19.307 26.7267H10.8406ZM0.913818 13.3689L2.83073 9.12891H6.14583L7.2337 11.504V9.12891H11.3547L12.0023 10.8455L12.6301 9.12891H31.129V9.99191C31.129 9.99191 32.1015 9.12891 33.6997 9.12891L39.7019 9.14881L40.771 11.4928V9.12891H44.2197L45.1688 10.4753V9.12891H48.6491V16.7458H45.1688L44.2592 15.3951V16.7458H39.1924L38.6828 15.5451H37.3207L36.8195 16.7458H33.3833C32.0081 16.7458 31.129 15.9005 31.129 15.9005V16.7458H25.9482L24.9199 15.5451V16.7458H5.65472L5.14553 15.5451H3.78774L3.28215 16.7458H0.913818V13.3689ZM0.923706 15.7712L3.5092 10.0678H5.46934L8.05236 15.7712H6.33199L5.85741 14.6291H3.08405L2.607 15.7712H0.923706ZM5.31114 13.3909L4.46579 11.3952L3.61796 13.3909H5.31114ZM8.23032 15.7704V10.067L10.6224 10.0755L12.0137 13.7526L13.3717 10.067H15.7446V15.7704H14.2417V11.5679L12.6487 15.7704H11.3307L9.73317 11.5679V15.7704H8.23032ZM16.7729 15.7704V10.067H21.6769V11.3428H18.2915V12.3183H21.5978V13.519H18.2915V14.5321H21.6769V15.7704H16.7729ZM22.547 15.7712V10.0678H25.8913C26.9994 10.0678 27.9923 10.718 27.9923 11.9181C27.9923 12.9441 27.1552 13.605 26.3437 13.6699L28.3211 15.7712H26.4845L24.6826 13.745H24.0498V15.7712H22.547ZM25.7677 11.3435H24.0498V12.5442H25.79C26.0912 12.5442 26.4796 12.3228 26.4796 11.9439C26.4796 11.6493 26.1798 11.3435 25.7677 11.3435ZM30.1403 15.7704H28.6058V10.067H30.1403V15.7704ZM33.7788 15.7704H33.4476C31.845 15.7704 30.872 14.5725 30.872 12.9422C30.872 11.2715 31.8341 10.067 33.8579 10.067H35.519V11.4178H33.7972C32.9756 11.4178 32.3946 12.0261 32.3946 12.9562C32.3946 14.0607 33.059 14.5246 34.0161 14.5246H34.4116L33.7788 15.7704ZM34.4635 15.7712L37.049 10.0678H39.0091L41.5922 15.7712H39.8718L39.3972 14.6291H36.6238L36.1468 15.7712H34.4635ZM38.8509 13.3909L38.0056 11.3952L37.1577 13.3909H38.8509ZM41.7676 15.7704V10.067H43.6783L46.118 13.6504V10.067H47.6209V15.7704H45.772L43.2705 12.0932V15.7704H41.7676ZM11.8688 25.751V20.0477H16.7729V21.3235H13.3875V22.299H16.6938V23.4997H13.3875V24.5128H16.7729V25.751H11.8688ZM35.8986 25.751V20.0477H40.8027V21.3235H37.4173V22.299H40.7077V23.4997H37.4173V24.5128H40.8027V25.751H35.8986ZM16.9632 25.751L19.3509 22.9345L16.9063 20.0477H18.7997L20.2556 21.8323L21.7165 20.0477H23.5357L21.1232 22.8994L23.5154 25.751H21.6223L20.2087 23.9945L18.8294 25.751H16.9632ZM23.6939 25.752V20.0487H27.0135C28.3756 20.0487 29.1714 20.8816 29.1714 21.967C29.1714 23.2772 28.1568 23.951 26.8182 23.951H25.2363V25.752H23.6939ZM26.9023 21.3385H25.2363V22.6517H26.8973C27.3363 22.6517 27.6438 22.3757 27.6438 21.9951C27.6438 21.5899 27.3347 21.3385 26.9023 21.3385ZM29.8239 25.751V20.0477H33.1683C34.2764 20.0477 35.2693 20.6978 35.2693 21.898C35.2693 22.924 34.4322 23.5848 33.6206 23.6498L35.598 25.751H33.7615L31.9596 23.7248H31.3268V25.751H29.8239ZM33.0447 21.3234H31.3268V22.5241H33.0669C33.3681 22.5241 33.7565 22.3026 33.7565 21.9237C33.7565 21.6292 33.4568 21.3234 33.0447 21.3234ZM41.4987 25.751V24.5128H44.5064C44.9514 24.5128 45.1441 24.2846 45.1441 24.0344C45.1441 23.7946 44.952 23.5523 44.5064 23.5523H43.1473C41.9658 23.5523 41.3079 22.8694 41.3079 21.8441C41.3079 20.9296 41.9104 20.0477 43.666 20.0477H46.5926L45.9598 21.331H43.4287C42.9449 21.331 42.7959 21.5718 42.7959 21.8019C42.7959 22.0383 42.98 22.299 43.3496 22.299H44.7733C46.0903 22.299 46.6618 23.0078 46.6618 23.9359C46.6618 24.9338 46.025 25.751 44.7017 25.751H41.4987ZM46.7943 25.751V24.5128H49.802C50.247 24.5128 50.4397 24.2846 50.4397 24.0344C50.4397 23.7946 50.2476 23.5523 49.802 23.5523H48.4428C47.2614 23.5523 46.6035 22.8694 46.6035 21.8441C46.6035 20.9296 47.206 20.0477 48.9616 20.0477H51.8882L51.2554 21.331H48.7243C48.2404 21.331 48.0915 21.5718 48.0915 21.8019C48.0915 22.0383 48.2755 22.299 48.6452 22.299H50.0689C51.3859 22.299 51.9574 23.0078 51.9574 23.9359C51.9574 24.9338 51.3206 25.751 49.9972 25.751H46.7943Z" fill="white"/>
</g>
</svg>
